HIERARCHY
ROOT Hips
{
	OFFSET 0.00000 0.00000 0.00000
	CHANNELS 6 Xposition Yposition Zposition Zrotation Yrotation Xrotation 
	JOINT LHipJoint
	{
		OFFSET 0 0 0
		CHANNELS 3 Zrotation Yrotation Xrotation
		JOINT LeftUpLeg
		{
			OFFSET 1.48831 -1.59570 0.95625
			CHANNELS 3 Zrotation Yrotation Xrotation
			JOINT LeftLeg
			{
				OFFSET 2.20856 -6.06797 0.00000
				CHANNELS 3 Zrotation Yrotation Xrotation
				JOINT LeftFoot
				{
					OFFSET 2.62924 -7.22379 0.00000
					CHANNELS 3 Zrotation Yrotation Xrotation
					JOINT LeftToeBase
					{
						OFFSET 0.16802 -0.46163 2.41673
						CHANNELS 3 Zrotation Yrotation Xrotation
						End Site
						{
							OFFSET 0.00000 -0.00000 1.23760
						}
					}
				}
			}
		}
	}
	JOINT RHipJoint
	{
		OFFSET 0 0 0
		CHANNELS 3 Zrotation Yrotation Xrotation
		JOINT RightUpLeg
		{
			OFFSET -1.56796 -1.59570 0.95625
			CHANNELS 3 Zrotation Yrotation Xrotation
			JOINT RightLeg
			{
				OFFSET -2.29239 -6.29829 0.00000
				CHANNELS 3 Zrotation Yrotation Xrotation
				JOINT RightFoot
				{
					OFFSET -2.66963 -7.33475 0.00000
					CHANNELS 3 Zrotation Yrotation Xrotation
					JOINT RightToeBase
					{
						OFFSET -0.18185 -0.49964 2.34359
						CHANNELS 3 Zrotation Yrotation Xrotation
						End Site
						{
							OFFSET -0.00000 -0.00000 1.20477
						}
					}
				}
			}
		}
	}
	JOINT LowerBack
	{
		OFFSET 0 0 0
		CHANNELS 3 Zrotation Yrotation Xrotation
		JOINT Spine
		{
			OFFSET 0.03505 2.15832 -0.34324
			CHANNELS 3 Zrotation Yrotation Xrotation
			JOINT Spine1
			{
				OFFSET -0.01089 2.17963 0.04689
				CHANNELS 3 Zrotation Yrotation Xrotation
				JOINT Neck
				{
					OFFSET 0 0 0
					CHANNELS 3 Zrotation Yrotation Xrotation
					JOINT Neck1
					{
						OFFSET 0.04686 1.69404 0.22159
						CHANNELS 3 Zrotation Yrotation Xrotation
						JOINT Head
						{
							OFFSET 0.00265 1.69305 -0.01513
							CHANNELS 3 Zrotation Yrotation Xrotation
							End Site
							{
								OFFSET -0.00415 1.80215 -0.03034
							}
						}
					}
				}
				JOINT LeftShoulder
				{
					OFFSET 0 0 0
					CHANNELS 3 Zrotation Yrotation Xrotation
					JOINT LeftArm
					{
						OFFSET 3.67184 1.11724 -0.19002
						CHANNELS 3 Zrotation Yrotation Xrotation
						JOINT LeftForeArm
						{
							OFFSET 5.17714 -0.00000 -0.00000
							CHANNELS 3 Zrotation Yrotation Xrotation
							JOINT LeftHand
							{
								OFFSET 3.43679 -0.00000 -0.00000
								CHANNELS 3 Zrotation Yrotation Xrotation
								JOINT LeftFingerBase
								{
									OFFSET 0 0 0
									CHANNELS 3 Zrotation Yrotation Xrotation
									JOINT LeftHandIndex1
									{
										OFFSET 0.57312 -0.00000 -0.00000
										CHANNELS 3 Zrotation Yrotation Xrotation
										End Site
										{
											OFFSET 0.46206 -0.00000 -0.00000
										}
									}
								}
								JOINT LThumb
								{
									OFFSET 0 0 0
									CHANNELS 3 Zrotation Yrotation Xrotation
									End Site
									{
										OFFSET 0.46912 -0.00000 0.46912
									}
								}
							}
						}
					}
				}
				JOINT RightShoulder
				{
					OFFSET 0 0 0
					CHANNELS 3 Zrotation Yrotation Xrotation
					JOINT RightArm
					{
						OFFSET -3.59596 0.95831 -0.26050
						CHANNELS 3 Zrotation Yrotation Xrotation
						JOINT RightForeArm
						{
							OFFSET -5.23908 -0.00000 -0.00000
							CHANNELS 3 Zrotation Yrotation Xrotation
							JOINT RightHand
							{
								OFFSET -3.46485 -0.00000 -0.00000
								CHANNELS 3 Zrotation Yrotation Xrotation
								JOINT RightFingerBase
								{
									OFFSET 0 0 0
									CHANNELS 3 Zrotation Yrotation Xrotation
									JOINT RightHandIndex1
									{
										OFFSET -0.60875 -0.00000 -0.00000
										CHANNELS 3 Zrotation Yrotation Xrotation
										End Site
										{
											OFFSET -0.49079 -0.00000 -0.00000
										}
									}
								}
								JOINT RThumb
								{
									OFFSET 0 0 0
									CHANNELS 3 Zrotation Yrotation Xrotation
									End Site
									{
										OFFSET -0.49829 -0.00000 0.49829
									}
								}
							}
						}
					}
				}
			}
		}
	}
}
MOTION
Frames: 7
Frame Time: 0.0645161
0.00 0.00 0.00 0 0 0 0 0 0 -21 0 0 0 0 0 0 0 0 0 0 0 0 0 0 21 0 0 0 0 0 0 0 0 0 0 0 0 0 0 0 0 0 0 0 0 0 0 -16 0 0 21 0 0 11 0 0 0 -8 0 0 0 0 0 0 0 0 0 0 0 0 0 0 0 0 0 0 0 0 8 0 0 0 0 0 0 0 0 0 0 0 0 0 0 0 0 0
0.00 0.00 0.00 -180.3680 -42.6057 179.1680 0.0000 0.0000 0.0000 -16.4758 9.1872 -24.0714 5.9062 14.3369 44.6043 1.3883 -5.9875 -21.1146 0.2121 -2.9649 -8.1812 0.0000 0.0000 0.0000 20.4033 1.9993 -23.3962 -7.2875 -15.5693 49.9536 -2.6146 -1.3872 -31.1218 -0.0039 -0.4008 1.1013 0.3032 -0.1686 10.4232 0.2888 -0.7855 7.4205 0.1875 -0.6364 1.8822 3.8591 0.6642 -6.6011 -1.4001 0.6157 4.4926 -1.0961 0.3284 2.6018 0.0000 -0.0000 0.0000 -83.7634 10.4423 38.5657 153.3845 -37.8100 -110.7376 -0.0000 0.0000 -4.1256 -9.6826 37.1848 -5.8876 -7.1250 0.0000 -0.0000 -50.0634 59.9013 -21.3238 0.0000 -0.0000 0.0000 83.7799 -8.9773 37.2529 -149.3778 41.4208 -108.1809 0.0000 0.0000 12.0430 24.0982 -15.6083 -6.8623 7.1250 -0.0000 -0.0000 43.7694 -41.1320 5.4046
0.00 0.00 0.00 -183.7200 -42.6919 184.7750 0.0000 0.0000 0.0000 -19.8004 6.6982 -36.8685 9.9008 17.3537 59.1562 2.5544 -8.6403 -28.7945 0.0232 0.9835 2.7035 0.0000 0.0000 0.0000 15.0088 1.3086 -38.7181 -12.3918 -18.5514 67.2255 -3.0886 2.2958 -32.7266 -0.0398 1.2876 -3.5404 -3.0823 -0.3669 15.2942 -0.6666 -1.6070 7.1204 1.2989 -1.1469 -0.9793 3.3613 0.5565 -4.8517 -0.8993 0.5533 2.1335 -0.8349 0.2848 1.4984 0.0000 0.0000 0.0000 -83.4619 8.8628 36.2648 151.8672 -39.2382 -109.7924 -0.0000 0.0000 -2.3989 -10.9692 37.3147 -6.7012 -7.1250 0.0000 -0.0000 -51.3611 59.6777 -21.7855 0.0000 0.0000 0.0000 84.5748 -7.5341 38.0694 -148.0519 42.5058 -107.2942 0.0000 0.0000 16.8013 24.6331 -15.4367 -6.9586 7.1250 -0.0000 -0.0000 44.0206 -40.9184 5.7668
0.00 0.00 0.00 -185.4770 -37.0776 189.9410 0.0000 0.0000 0.0000 -26.9014 -0.6423 -38.3163 9.7351 17.2582 58.5994 2.6814 3.5402 -32.3511 0.0727 -1.7398 -4.7871 0.0000 0.0000 0.0000 5.5046 5.2637 -50.5334 -15.6869 -19.5480 77.2976 -1.0541 2.4534 -18.7397 -0.4346 4.2303 -11.7255 -8.6199 0.9958 22.4067 -2.5227 -1.8042 7.0741 2.6718 -1.3337 -4.5898 5.0278 1.0582 -0.6853 -0.9677 1.1307 8.1835 -1.1544 0.6070 2.7698 0.0000 -0.0000 0.0000 -82.3189 9.4132 35.6761 154.6769 -36.5324 -111.5185 -0.0000 0.0000 -4.4353 -10.7554 38.8682 -6.7977 -7.1250 0.0000 -0.0000 -53.1543 60.7569 -24.2102 0.0000 -0.0000 0.0000 84.0971 -7.5981 38.5617 -149.9699 40.9192 -108.5707 0.0000 0.0000 15.0490 23.9032 -16.9228 -7.3511 7.1250 -0.0000 -0.0000 44.4172 -42.2168 3.9480
0.00 0.00 0.00 -186.5790 -35.9260 190.0530 0.0000 0.0000 0.0000 -29.0369 1.2303 -37.4762 9.5101 17.1250 57.8379 2.8020 2.9853 -32.8079 0.0642 -1.6349 -4.4977 0.0000 0.0000 0.0000 1.4387 4.2813 -64.8744 -21.6405 -19.9354 94.8013 -1.0847 0.1716 -19.6382 -0.3482 3.7916 -10.4912 -10.1855 1.2717 24.1895 -3.6643 -2.3057 7.3441 2.4817 -1.6415 -5.1338 5.3577 1.4936 0.4273 -1.8430 1.7435 9.2601 -1.4915 0.8790 2.9716 0.0000 0.0000 0.0000 -82.0043 9.1827 35.1700 154.7644 -36.4439 -111.5705 -0.0000 0.0000 -3.8074 -10.6710 38.5952 -6.7040 -7.1250 0.0000 -0.0000 -52.7219 60.6002 -23.7481 0.0000 0.0000 0.0000 83.8958 -7.3388 39.2407 -149.5092 41.3104 -108.2677 0.0000 0.0000 14.8450 23.7883 -16.7299 -7.2317 7.1250 -0.0000 -0.0000 44.2239 -42.0784 4.1197
0.00 0.00 0.00 -186.3350 -32.6915 183.6060 0.0000 0.0000 0.0000 -30.9959 9.8703 -15.1231 5.3138 13.7287 42.1614 2.8057 8.7209 -35.6057 0.1987 -2.8705 -7.9185 0.0000 0.0000 0.0000 5.4938 8.5314 -68.6387 -15.2814 -19.4576 76.0827 -2.2251 -5.2314 -30.4216 -0.8623 5.9215 -16.5568 -7.4638 0.4505 19.9027 -3.0241 -2.1841 8.6126 1.4714 -1.7499 -1.6864 7.2208 2.6025 5.3216 -5.3087 3.2328 15.1368 -2.7923 1.3895 3.8658 0.0000 -0.0000 0.0000 -83.0640 9.4430 33.1376 152.5651 -38.5908 -110.2308 -0.0000 0.0000 -5.4996 -11.6844 38.8568 -7.3926 -7.1250 0.0000 -0.0000 -53.9493 60.5152 -24.3915 0.0000 -0.0000 0.0000 82.3298 -4.0162 38.9920 -148.1291 42.4440 -107.3464 0.0000 0.0000 14.9864 23.8439 -16.7088 -7.2417 7.1250 -0.0000 -0.0000 44.2486 -42.0537 4.1592
0.00 0.00 0.00 -184.2790 -32.3657 181.7290 0.0000 0.0000 0.0000 -27.7079 16.0682 -4.1671 2.6217 10.0560 29.1582 2.2132 7.6820 -31.6810 0.3879 -3.9993 -11.0748 0.0000 0.0000 0.0000 8.0344 11.6423 -52.2178 -6.2370 -14.6542 45.9257 -2.2985 -4.7666 -30.6427 -1.0034 6.3743 -17.8742 -3.9795 -0.5754 17.8672 -1.8995 -2.5054 8.1041 0.7182 -1.7499 -1.2653 7.1800 2.8465 4.5518 -5.8635 3.5973 15.4989 -2.9420 1.5353 4.1284 0.0000 0.0000 0.0000 -83.7146 10.4705 32.7770 151.9555 -39.1572 -109.8482 -0.0000 0.0000 -5.5366 -11.8631 38.9080 -7.5158 -7.1250 0.0000 -0.0000 -54.1718 60.5031 -24.5136 0.0000 0.0000 0.0000 82.0168 -4.3357 38.6160 -147.6803 42.8006 -107.0425 0.0000 0.0000 14.8099 24.1263 -16.6166 -7.2985 7.1250 -0.0000 -0.0000 44.3823 -41.9400 4.3450
